Coordinates
version=1
nRows=32
nColumns=12
inDegrees=yes

Units are S.I. units (second, meters, Newtons, ...)
Angles are in degrees

endheader
time	SC_y	SC_z	SC_x	AC_y	AC_z	AC_x	GH_y	GH_z	GH_yy	EL_x	PS_y
       0.0              -46.72          2.583           31.4           45.4          1.042         -8.926          166.9          44.04         -87.21          92.71          35.17
   0.03768              -46.71          2.587           31.4           45.4           1.04         -8.923          166.9          44.04         -87.21          92.71          35.18
   0.07536              -46.71          2.592           31.4           45.4          1.037          -8.92          166.8          44.03         -87.22           92.7          35.19
     0.113               -46.7          2.598           31.4          45.39          1.035         -8.917          166.8          44.02         -87.22           92.7           35.2
    0.1507               -46.7          2.603          31.41          45.39          1.032         -8.913          166.8          44.01         -87.23           92.7          35.22
    0.1884              -46.69          2.609          31.41          45.39          1.029         -8.909          166.7           44.0         -87.23          92.69          35.23
    0.2261              -46.68          2.616          31.42          45.39          1.026         -8.905          166.7           44.0         -87.24          92.69          35.25
    0.2638              -46.68          2.623          31.42          45.38          1.023         -8.901          166.6          43.98         -87.24          92.69          35.26
    0.3014              -46.67           2.63          31.43          45.38          1.019         -8.896          166.6          43.97         -87.25          92.68          35.28
    0.3391              -46.66          2.638          31.43          45.38          1.016         -8.892          166.5          43.96         -87.25          92.68           35.3
    0.3768              -46.65          2.646          31.44          45.38          1.012         -8.886          166.5          43.95         -87.26          92.68          35.32
    0.4145              -46.64          2.655          31.44          45.37          1.007         -8.881          166.4          43.94         -87.27          92.67          35.34
    0.4522              -46.63          2.665          31.45          45.37          1.003         -8.875          166.4          43.92         -87.28          92.67          35.36
    0.4898              -46.62          2.676          31.45          45.36         0.9974         -8.868          166.3           43.9         -87.28          92.66          35.38
    0.5275               -46.6          2.687          31.46          45.36         0.9919         -8.861          166.2          43.89         -87.29          92.66          35.41
    0.5652              -46.59            2.7          31.47          45.36          0.986         -8.853          166.2          43.87          -87.3          92.65          35.44
    0.6029              -46.58          2.713          31.48          45.35         0.9795         -8.845          166.1          43.85         -87.31          92.64          35.47
    0.6406              -46.56          2.728          31.49          45.34         0.9725         -8.836          166.0          43.83         -87.33          92.63           35.5
    0.6782              -46.54          2.744           31.5          45.34         0.9648         -8.826          165.9           43.8         -87.34          92.63          35.54
    0.7159              -46.52          2.762          31.51          45.33         0.9563         -8.815          165.8          43.78         -87.35          92.62          35.58
    0.7536               -46.5          2.781          31.52          45.32         0.9471         -8.803          165.7          43.75         -87.37          92.61          35.63
    0.7913              -46.48          2.802          31.53          45.32         0.9369         -8.789          165.5          43.71         -87.39           92.6          35.67
     0.829              -46.45          2.826          31.55          45.31         0.9256         -8.775          165.4          43.68         -87.41          92.59          35.73
    0.8666              -46.42          2.852          31.57           45.3         0.9131         -8.759          165.2          43.64         -87.43          92.57          35.79
    0.9043              -46.39          2.881          31.58          45.29         0.8993         -8.741          165.1           43.6         -87.45          92.56          35.85
     0.942              -46.35          2.913           31.6          45.27         0.8838         -8.721          164.9          43.55         -87.48          92.54          35.93
    0.9797              -46.31          2.949          31.63          45.26         0.8665         -8.698          164.7          43.49         -87.51          92.52          36.01
     1.017              -46.27           2.99          31.65          45.24          0.847         -8.673          164.4          43.43         -87.54           92.5           36.1
     1.055              -46.22          3.036          31.68          45.23          0.825         -8.644          164.1          43.36         -87.58          92.48          36.21
     1.093              -46.16          3.089          31.72          45.21            0.8         -8.612          163.8          43.28         -87.62          92.45          36.33
      1.13              -46.09          3.148          31.75          45.18         0.7714         -8.575          163.4          43.19         -87.67          92.42          36.47
     1.168              -46.02          3.217           31.8          45.16         0.7386         -8.532          163.0          43.09         -87.72          92.39          36.62
